# xmcd
#
# Track frame offsets: 
#        163
#        3462
#        16306
#        37649
#        49446
#        65939
#        78479
#        100703
#        114974
#        127237
#        138895
#        156445
#        172550
#        185149
#        225275
#
# Disc length: 3302 seconds
#
# Revision: 0
# Processed by: cddbd v1.5.1PL2 Copyright (c) Steve Scherf et al.
# Submitted via: ExactAudioCopy v0.90b4
#
DISCID=bb0ce40f
DTITLE=Howard Tate - Live
DYEAR=2006
DGENRE=Soul
TTITLE0=Introduction
TTITLE1=Stop
TTITLE2=Part-Time Love
TTITLE3=Look At Granny Run Run
TTITLE4=Show Me The Man
TTITLE5=Eight Days On The Road
TTITLE6=Sweet Sixteen
TTITLE7=Every Day I Have The Blues
TTITLE8=Ain't Nobody Home
TTITLE9=Sorry Wrong Number
TTITLE10=Mama Was Right
TTITLE11=Get It While You Can
TTITLE12=She's A Burglar
TTITLE13=I Learned It All The Hard Way
TTITLE14=Eternity
EXTD=
EXTT0=
EXTT1=
EXTT2=
EXTT3=
EXTT4=
EXTT5=
EXTT6=
EXTT7=
EXTT8=
EXTT9=
EXTT10=
EXTT11=
EXTT12=
EXTT13=
EXTT14=
PLAYORDER=
